<svg width="35" height="34" viewBox="0 0 35 34" fill="none" xmlns="http://www.w3.org/2000/svg">
<path d="M15.8063 0C15.485 0 15.1769 0.127624 14.9497 0.354797C14.7225 0.58197 14.5949 0.890082 14.5949 1.21135V15.7901C14.5949 16.7567 14.9789 17.6838 15.6624 18.3673C16.3459 19.0508 17.273 19.4348 18.2396 19.4348H32.8077C32.9677 19.4348 33.1261 19.4031 33.2737 19.3416C33.4214 19.28 33.5554 19.1898 33.668 19.0762C33.7807 18.9626 33.8697 18.8278 33.9299 18.6796C33.9902 18.5314 34.0205 18.3728 34.0191 18.2128C34.0134 13.3842 32.0928 8.75496 28.6784 5.34061C25.2641 1.92627 20.6349 0.00562447 15.8063 0ZM18.2396 17.0014C18.0796 17.0028 17.921 16.9725 17.7728 16.9123C17.6246 16.8521 17.4898 16.763 17.3762 16.6504C17.2625 16.5378 17.1724 16.4038 17.1108 16.2561C17.0493 16.1085 17.0176 15.9501 17.0176 15.7901V2.47583C20.7719 2.77052 24.2978 4.39552 26.9607 7.05839C29.6235 9.72125 31.2485 13.2471 31.5432 17.0014H18.2396Z" fill="#7B99AD"/>
<path d="M29.9387 21.9318C29.7881 21.8781 29.6283 21.8547 29.4685 21.8631C29.3088 21.8714 29.1523 21.9113 29.008 21.9805C28.8638 22.0496 28.7347 22.1467 28.6282 22.266C28.5216 22.3853 28.4398 22.5245 28.3873 22.6757C27.4392 25.4092 25.6224 27.7573 23.2145 29.3614C20.8065 30.9654 17.9397 31.7372 15.0518 31.5589C11.7512 31.3541 8.64165 29.9407 6.31702 27.5886C3.99239 25.2366 2.61558 22.1106 2.44953 18.8078C2.31269 15.9462 3.1048 13.1169 4.70766 10.7423C6.31052 8.36773 8.63821 6.57503 11.3434 5.63172C11.4941 5.5787 11.6329 5.49651 11.7518 5.38984C11.8708 5.28318 11.9675 5.15414 12.0366 5.01008C12.1057 4.86602 12.1457 4.70977 12.1544 4.55024C12.1631 4.39072 12.1402 4.23104 12.0872 4.08034C12.0342 3.92964 11.952 3.79085 11.8453 3.67191C11.7387 3.55297 11.6096 3.4562 11.4656 3.38713C11.3215 3.31806 11.1653 3.27804 11.0057 3.26936C10.8462 3.26068 10.6865 3.2835 10.5358 3.33653C7.34315 4.44767 4.59458 6.55998 2.69913 9.35911C0.803687 12.1582 -0.137304 15.4946 0.0161943 18.8716C0.206057 22.7801 1.82707 26.4821 4.57043 29.2725C7.31379 32.0629 10.9878 33.7466 14.8925 34.0029H15.785C19.0524 34.0216 22.2438 33.0173 24.9116 31.1307C27.5794 29.2442 29.5899 26.5701 30.6613 23.4832C30.7709 23.1817 30.7563 22.849 30.6209 22.5581C30.4854 22.2673 30.2401 22.042 29.9387 21.9318Z" fill="#7B99AD"/>
</svg>
