<svg width="30" height="35" viewBox="0 0 30 35" fill="none" xmlns="http://www.w3.org/2000/svg">
<path d="M26.2449 9.60863L27.6034 8.24805L28.0075 8.65004C28.0963 8.73911 28.2019 8.80978 28.3181 8.858C28.4343 8.90621 28.5589 8.93103 28.6847 8.93103C28.8105 8.93103 28.9351 8.90621 29.0513 8.858C29.1675 8.80978 29.273 8.73911 29.3619 8.65004C29.4515 8.56129 29.5227 8.45565 29.5712 8.33924C29.6198 8.22283 29.6448 8.09794 29.6448 7.97181C29.6448 7.84567 29.6198 7.72079 29.5712 7.60437C29.5227 7.48796 29.4515 7.38232 29.3619 7.29357L27.3293 5.25888C27.1491 5.079 26.9049 4.97805 26.6503 4.97825C26.3957 4.97844 26.1516 5.07976 25.9718 5.25991C25.7919 5.44006 25.6909 5.68429 25.6911 5.93887C25.6913 6.19345 25.7926 6.43752 25.9728 6.6174L26.4222 7.06269L25.0864 8.39854C22.7008 6.18908 19.6578 4.82074 16.4219 4.50231V3.2551H17.3887C17.8104 3.24009 18.2097 3.06205 18.5027 2.75846C18.7956 2.45488 18.9594 2.04945 18.9594 1.62755C18.9594 1.20566 18.7956 0.800223 18.5027 0.496638C18.2097 0.193053 17.8104 0.015008 17.3887 0L12.5071 0C12.0855 0.015008 11.6861 0.193053 11.3931 0.496638C11.1002 0.800223 10.9365 1.20566 10.9365 1.62755C10.9365 2.04945 11.1002 2.45488 11.3931 2.75846C11.6861 3.06205 12.0855 3.24009 12.5071 3.2551H13.5791V4.49612H13.5193C10.0969 4.82158 6.89228 6.32045 4.44871 8.73868L3.61793 9.63543C1.28202 12.3396 -0.00226413 15.7944 2.99645e-06 19.3678C0.0651232 23.2881 1.66819 27.0259 4.46361 29.7752C7.25903 32.5246 11.0229 34.0654 14.9438 34.0654C18.8647 34.0654 22.6286 32.5246 25.424 29.7752C28.2194 27.0259 29.8225 23.2881 29.8876 19.3678C29.8907 15.7817 28.597 12.3156 26.2449 9.60863ZM14.9252 31.7553C11.6328 31.7553 8.47512 30.4474 6.14698 28.1192C3.81884 25.7911 2.51091 22.6334 2.51091 19.341C2.51091 16.0485 3.81884 12.8908 6.14698 10.5627C8.47512 8.23456 11.6328 6.92663 14.9252 6.92663C18.2177 6.92663 21.3754 8.23456 23.7035 10.5627C26.0316 12.8908 27.3396 16.0485 27.3396 19.341C27.3396 22.6334 26.0316 25.7911 23.7035 28.1192C21.3754 30.4474 18.2177 31.7553 14.9252 31.7553Z" fill="#E65129"/>
<path d="M15.9085 18.2298V10.4064L15.0056 8.95926L13.979 10.4064V18.2298C13.6162 18.4398 13.333 18.7637 13.1734 19.1513C13.0138 19.5389 12.9869 19.9684 13.0967 20.3729C13.2065 20.7775 13.447 21.1343 13.7807 21.388C14.1144 21.6417 14.5225 21.7779 14.9417 21.7756C15.9931 21.7756 16.8506 20.9221 16.8506 19.8687C16.8513 19.5369 16.7645 19.2107 16.5992 18.923C16.4338 18.6354 16.1956 18.3963 15.9085 18.2298Z" fill="#E65129"/>
</svg>
