<svg width="658" height="653" xmlns="http://www.w3.org/2000/svg" xmlns:xlink="http://www.w3.org/1999/xlink" xml:space="preserve" overflow="hidden"><g transform="translate(-3152 -1595)"><path d="M3237.82 2247.03C3220.99 2245.98 3204.6 2242.45 3189.13 2236.71L3173.04 2228.93 3171.08 2230.87 3168.91 2227.28 3168.76 2226.86 3168.74 2226.86 3168.75 2226.85 3157.18 2194.61C3134.28 2102.78 3190.16 2009.77 3282 1986.87 3316.44 1978.28 3351.04 1980.78 3382.05 1992.09L3399.71 2000.52 3401.28 1998.98 3403.44 2002.58C3408.3 2012.87 3412.2 2023.81 3415.01 2035.3 3437.45 2127.25 3381.1 2219.99 3289.15 2242.43 3271.91 2246.64 3254.64 2248.07 3237.82 2247.03Z" fill="#335067" fill-rule="evenodd"/><path d="M3693.55 1595.85C3716.37 1597.27 3738.59 1602.06 3759.58 1609.84L3781.39 1620.39 3784.05 1617.76 3787 1622.62 3787.2 1623.2 3787.22 1623.2 3787.21 1623.21 3802.91 1666.92C3833.96 1791.46 3758.17 1917.59 3633.63 1948.64 3586.93 1960.29 3540.01 1956.91 3497.96 1941.57L3474.01 1930.13 3471.89 1932.22 3468.96 1927.34C3462.37 1913.38 3457.07 1898.55 3453.27 1882.96 3422.84 1758.27 3499.25 1632.52 3623.94 1602.09 3647.32 1596.38 3670.73 1594.43 3693.55 1595.85Z" fill="#E65129" fill-rule="evenodd"/><path d="M3453.69 2065.24C3454.54 2051.7 3457.38 2038.51 3462 2026.05L3468.26 2013.1 3466.7 2011.53 3469.58 2009.78 3469.92 2009.66 3469.93 2009.65 3469.94 2009.65 3495.88 2000.34C3569.8 1981.91 3644.66 2026.89 3663.09 2100.81 3670 2128.52 3667.99 2156.38 3658.89 2181.34L3652.1 2195.55 3653.34 2196.81 3650.45 2198.55C3642.16 2202.46 3633.36 2205.6 3624.1 2207.86 3550.1 2225.92 3475.46 2180.57 3457.4 2106.56 3454.01 2092.68 3452.85 2078.78 3453.69 2065.24Z" fill="#335067" fill-rule="evenodd"/><path d="M3202.2 1793.76C3203.04 1780.22 3205.89 1767.03 3210.5 1754.57L3216.76 1741.62 3215.21 1740.05 3218.09 1738.3 3218.43 1738.18 3218.43 1738.17 3218.44 1738.17 3244.38 1728.85C3318.3 1710.42 3393.17 1755.41 3411.59 1829.32 3418.51 1857.04 3416.5 1884.89 3407.39 1909.85L3400.61 1924.06 3401.85 1925.33 3398.95 1927.06C3390.67 1930.98 3381.86 1934.12 3372.61 1936.38 3298.6 1954.44 3223.96 1909.09 3205.9 1835.08 3202.51 1821.2 3201.36 1807.3 3202.2 1793.76Z" fill="#335067" fill-rule="evenodd"/></g></svg>