<svg width="28" height="34" viewBox="0 0 28 34" fill="none" xmlns="http://www.w3.org/2000/svg">
<path d="M13.7883 16.1664C16.0092 16.1664 17.9321 15.3698 19.5038 13.7982C21.0749 12.2268 21.8717 10.3042 21.8717 8.08299C21.8717 5.86247 21.0752 3.9396 19.5035 2.36768C17.9319 0.796546 16.0089 0 13.7883 0C11.567 0 9.6443 0.796547 8.07296 2.36794C6.50163 3.93934 5.70476 5.86227 5.70476 8.08299C5.70476 10.3042 6.50157 12.2271 8.07303 13.7985C9.64489 15.3696 11.5678 16.1664 13.7882 16.1664H13.7883ZM9.46384 3.75856C10.6695 2.55279 12.084 1.96672 13.7883 1.96672C15.4923 1.96672 16.9069 2.55279 18.1129 3.75856C19.3187 4.96452 19.905 6.37919 19.905 8.08293C19.905 9.78719 19.3187 11.2017 18.1129 12.4076C16.9069 13.6137 15.4923 14.1997 13.7883 14.1997C12.0845 14.1997 10.6701 13.6134 9.46384 12.4076C8.25781 11.2019 7.67148 9.78726 7.67148 8.08299C7.67148 6.37919 8.25781 4.96452 9.46384 3.75856ZM27.9322 25.8067C27.8868 25.1528 27.7952 24.4393 27.6602 23.6861C27.524 22.9271 27.3486 22.2097 27.1386 21.554C26.9215 20.8762 26.6268 20.2069 26.2619 19.5655C25.8837 18.8998 25.4393 18.32 24.9405 17.8431C24.4189 17.344 23.7803 16.9428 23.0418 16.6501C22.306 16.359 21.4904 16.2115 20.6181 16.2115C20.2755 16.2115 19.9442 16.3521 19.3043 16.7687C18.8495 17.0649 18.3933 17.359 17.9357 17.651C17.4961 17.9311 16.9005 18.1936 16.1649 18.4312C15.4472 18.6635 14.7185 18.7812 13.999 18.7812C13.28 18.7812 12.5512 18.6635 11.833 18.4312C11.0982 18.1938 10.5024 17.9314 10.0635 17.6513C9.55417 17.3258 9.09336 17.0288 8.69364 16.7684C8.05428 16.3518 7.72294 16.2112 7.38038 16.2112C6.50773 16.2112 5.6925 16.359 4.95685 16.6504C4.2189 16.9425 3.58007 17.3438 3.05797 17.8433C2.55921 18.3206 2.11473 18.9 1.73678 19.5655C1.37246 20.2069 1.07749 20.8759 0.860325 21.5542C0.65057 22.21 0.475227 22.9271 0.339017 23.6861C0.203791 24.4384 0.112416 25.152 0.0670562 25.8075C0.0224832 26.4483 0 27.1154 0 27.7893C0 29.5412 0.556901 30.9594 1.6551 32.0053C2.73973 33.0376 4.17466 33.5609 5.92009 33.5609H22.0799C23.8248 33.5609 25.2597 33.0375 26.3446 32.0054C27.4431 30.9602 28 29.5414 28 27.789C27.9997 27.1128 27.977 26.4458 27.9322 25.8067ZM24.9886 30.5805C24.2719 31.2626 23.3204 31.5942 22.0796 31.5942H5.92015C4.67912 31.5942 3.72762 31.2626 3.01117 30.5808C2.30836 29.9117 1.96679 28.9984 1.96679 27.7893C1.96679 27.1604 1.9875 26.5395 2.02906 25.9434C2.06943 25.3586 2.15216 24.7161 2.27486 24.0335C2.39593 23.3594 2.55004 22.7267 2.73338 22.1539C2.90931 21.6046 3.14922 21.0608 3.44674 20.537C3.7307 20.0376 4.05739 19.6093 4.41791 19.2641C4.75516 18.9412 5.18024 18.677 5.68103 18.4789C6.1442 18.2955 6.66478 18.1951 7.22988 18.18C7.2987 18.2167 7.42141 18.2866 7.62009 18.4161C8.02439 18.6796 8.49038 18.9802 9.00559 19.3092C9.58635 19.6795 10.3345 20.0138 11.2283 20.3024C12.1422 20.5979 13.0742 20.7479 13.9993 20.7479C14.9244 20.7479 15.8567 20.5979 16.77 20.3026C17.6646 20.0136 18.4125 19.6795 18.9941 19.3087C19.5213 18.9717 19.9742 18.6798 20.3785 18.4161C20.5772 18.2867 20.6999 18.2166 20.7687 18.18C21.3341 18.1951 21.8546 18.2955 22.318 18.4788C22.8186 18.677 23.2437 18.9415 23.5809 19.2641C23.9414 19.609 24.2681 20.0374 24.5521 20.5372C24.8499 21.0608 25.0901 21.6049 25.2657 22.1537C25.4493 22.7272 25.6037 23.3596 25.7245 24.0333C25.8469 24.7172 25.9299 25.3599 25.9704 25.9437V25.9442C26.0121 26.5379 26.0331 27.1586 26.0333 27.7893C26.0331 28.9986 25.6915 29.9117 24.9887 30.5805H24.9886Z" fill="#7B99AD"/>
</svg>
