<svg xmlns="http://www.w3.org/2000/svg" version="1.1" xmlns:xlink="http://www.w3.org/1999/xlink" width="512" height="512" x="0" y="0" viewBox="0 0 512 512" style="enable-background:new 0 0 512 512" xml:space="preserve" class=""><g><path d="M20 346.912a20 20 0 0 1-20-20V185.088A102 102 0 0 1 101.887 83.2h268.78l-28.961-28.959a20 20 0 0 1 28.285-28.284l63.1 63.1a20 20 0 0 1 0 28.284l-64.975 64.975a20 20 0 1 1-28.285-28.285l30.836-30.831h-268.78A61.957 61.957 0 0 0 40 185.088v141.824a20 20 0 0 1-20 20zm472-181.824a20 20 0 0 0-20 20v141.824a61.957 61.957 0 0 1-61.887 61.888h-268.78l30.833-30.832a20 20 0 1 0-28.285-28.285l-64.975 64.973a20 20 0 0 0 0 28.285l63.1 63.1a20 20 0 0 0 28.285-28.285L141.333 428.8h268.78A102 102 0 0 0 512 326.912V185.088a20 20 0 0 0-20-20z" fill="#000000" opacity="1" data-original="#000000" class=""></path></g></svg>